<svg width="48" height="30" viewBox="0 0 48 30" fill="none" xmlns="http://www.w3.org/2000/svg">
<path id="Behance" fill-rule="evenodd" clip-rule="evenodd" d="M30.6719 5.00602H43.3831V1.36426H30.6719V5.00602ZM33.683 12.9522C32.873 13.7763 32.3622 14.8928 32.1533 16.3016H42.0395C41.9351 14.7981 41.4215 13.6622 40.5127 12.8798C39.5927 12.103 38.461 11.716 37.1063 11.716C35.6387 11.716 34.4929 12.1281 33.683 12.9522ZM42.2624 8.06312C43.7949 8.7369 45.0564 9.80604 46.0498 11.265C46.9557 12.5513 47.5371 14.0436 47.8024 15.7392C47.9576 16.7304 48.0197 18.1671 47.9943 20.0353H32.0121C32.1081 22.2042 32.8644 23.7272 34.3094 24.5986C35.1843 25.1415 36.237 25.4144 37.4731 25.4144C38.7742 25.4144 39.8381 25.0831 40.6537 24.4232C41.1025 24.064 41.4976 23.5685 41.8363 22.9337H47.6923C47.5371 24.2144 46.8259 25.5202 45.5672 26.8455C43.603 28.9476 40.8513 30 37.3151 30C34.3941 30 31.8174 29.1146 29.5907 27.3383C27.3527 25.5647 26.2407 22.6747 26.2407 18.6766C26.2407 14.9262 27.2483 12.0501 29.2605 10.0483C31.2784 8.05198 33.8889 7.04688 37.1034 7.04688C39.014 7.04688 40.7328 7.38655 42.2624 8.06312ZM5.9126 16.3796V24.1838H13.1149C14.4018 24.1838 15.4065 24.0111 16.1205 23.6687C17.4216 23.0283 18.0707 21.8144 18.0707 20.0158C18.0707 18.49 17.4441 17.4459 16.1826 16.8752C15.4771 16.5578 14.4865 16.3907 13.2165 16.3796H5.9126ZM5.9126 5.08118V11.5378H13.1262C14.4103 11.5378 15.4573 11.2956 16.2645 10.8111C17.066 10.3267 17.4695 9.46911 17.4695 8.24405C17.4695 6.877 16.939 5.9777 15.8778 5.53779C14.9578 5.23431 13.7894 5.08118 12.3698 5.08118H5.9126ZM22.0217 3.11833C22.9276 4.36288 23.382 5.84965 23.382 7.58422C23.382 9.36891 22.9276 10.8084 22.0104 11.8942C21.4968 12.5012 20.7432 13.058 19.747 13.5592C21.2597 14.1049 22.3999 14.9652 23.176 16.1429C23.9436 17.3179 24.3303 18.749 24.3303 20.4306C24.3303 22.1652 23.89 23.7216 23.0066 25.097C22.4478 26.0074 21.7479 26.7759 20.9069 27.3995C19.9615 28.1151 18.8467 28.6023 17.557 28.8696C16.2672 29.1341 14.873 29.2622 13.366 29.2622H0V0H14.334C17.9521 0.0529002 20.5118 1.09142 22.0217 3.11833Z" fill="#1769FF"/>
</svg>
