<svg width="46" height="46" viewBox="0 0 46 46" fill="none" xmlns="http://www.w3.org/2000/svg">
<path id="Dribbble" fill-rule="evenodd" clip-rule="evenodd" d="M33.9774 39.2902C33.7772 38.1057 32.7305 32.3398 30.1528 25.2623C36.4955 24.2481 41.9889 25.9871 42.3946 26.1196C41.521 31.5934 38.3861 36.3126 33.9774 39.2902ZM23.0013 42.6437C18.2463 42.6437 13.8862 40.9535 10.4863 38.1408C10.746 38.3518 10.9272 38.4843 10.9272 38.4843C10.9272 38.4843 14.6922 30.2736 26.3417 26.2142C26.385 26.198 26.4309 26.1872 26.4742 26.1736C29.2385 33.354 30.3772 39.3687 30.6693 41.086C28.3135 42.0866 25.7196 42.6437 23.0013 42.6437ZM3.35645 22.9986C3.35645 22.7904 3.36726 22.5848 3.37267 22.3793C3.72159 22.3874 13.4263 22.6065 23.5394 19.5802C24.102 20.6809 24.6403 21.8033 25.1325 22.9202C24.8729 22.9905 24.6159 23.0689 24.359 23.1555C13.759 26.5793 8.38191 36.1152 8.38191 36.1152C8.38191 36.1152 8.39002 36.1233 8.39002 36.126C5.2606 32.6454 3.35645 28.0451 3.35645 22.9986ZM14.619 5.23853C14.8814 5.5874 18.5139 10.5122 21.9138 16.5539C12.4823 19.061 4.29493 18.9609 3.77832 18.9528C5.05227 12.8678 9.13917 7.82398 14.619 5.23853ZM18.2951 3.92957C18.2951 3.93227 18.2924 3.93497 18.2924 3.93497C18.2924 3.93497 18.2681 3.94038 18.2329 3.94579C18.2545 3.94038 18.2735 3.93768 18.2951 3.92957ZM35.9732 8.26212C35.9246 8.33514 33.1278 12.5946 25.7113 15.3721C22.3547 9.20327 18.6654 4.3028 18.3706 3.91336C19.8555 3.55367 21.4054 3.35895 23.0012 3.35895C27.9725 3.35895 32.5138 5.2142 35.9732 8.26212ZM42.6378 22.8039C42.3538 22.7417 35.7055 21.311 28.9571 22.1602C28.8165 21.8249 28.6785 21.4868 28.5325 21.1488C28.1241 20.186 27.6832 19.234 27.2261 18.2983C34.9834 15.1314 38.1317 10.5798 38.1696 10.5257C40.923 13.8711 42.5919 18.1441 42.6378 22.8039ZM45.5348 18.3713C45.2318 16.8947 44.7774 15.437 44.1905 14.0469C43.6171 12.6839 42.9003 11.3695 42.07 10.1417C41.2504 8.92469 40.3038 7.778 39.2651 6.73949C38.2238 5.69828 37.0797 4.75442 35.8598 3.93227C34.6319 3.0993 33.3173 2.38803 31.9541 1.80928C30.5639 1.22512 29.1087 0.770768 27.6319 0.470574C26.1172 0.159563 24.5593 0 23.0014 0C21.4407 0 19.8828 0.159563 18.3681 0.470574C16.8913 0.770768 15.4361 1.22512 14.0459 1.80928C12.6827 2.38803 11.3681 3.0993 10.1375 3.93227C8.92033 4.75442 7.77621 5.69828 6.73487 6.73949C5.69624 7.778 4.75228 8.92469 3.93003 10.1417C3.09966 11.3695 2.3829 12.6839 1.80949 14.0469C1.21985 15.437 0.768154 16.8947 0.46522 18.3713C0.156877 19.8831 0 21.4409 0 22.9986C0 24.5618 0.156877 26.1196 0.46522 27.6341C0.768154 29.1107 1.21985 30.5657 1.80949 31.9531C2.3829 33.3161 3.09966 34.6359 3.93003 35.8637C4.75228 37.0807 5.69624 38.222 6.73487 39.2659C7.77621 40.3044 8.92033 41.2456 10.1375 42.0704C11.3681 42.9007 12.6827 43.6147 14.0459 44.1907C15.4361 44.7803 16.8913 45.2292 18.3681 45.5294C19.8828 45.8431 21.4407 46 23.0014 46C24.5593 46 26.1172 45.8431 27.6319 45.5294C29.1087 45.2292 30.5639 44.7803 31.9541 44.1907C33.3173 43.6147 34.6319 42.9007 35.8598 42.0704C37.0797 41.2456 38.2238 40.3044 39.2651 39.2659C40.3038 38.222 41.2504 37.0807 42.07 35.8637C42.9003 34.6359 43.6171 33.3161 44.1905 31.9531C44.7774 30.5657 45.2318 29.1107 45.5348 27.6341C45.8431 26.1196 46 24.5618 46 22.9986C46 21.4409 45.8431 19.8831 45.5348 18.3713Z" fill="#EC4989"/>
</svg>
