<svg width="48" height="48" viewBox="0 0 48 48" fill="none" xmlns="http://www.w3.org/2000/svg">
<path id="Skype" fill-rule="evenodd" clip-rule="evenodd" d="M47.1475 24.249C47.1475 25.9127 46.9673 27.5319 46.6201 29.0955C47.5034 30.8482 48 32.8207 48 34.9101C48 42.1381 42.0566 48 34.7246 48C32.4526 48 30.3188 47.4352 28.4478 46.4448C27.0874 46.6924 25.6875 46.8232 24.2539 46.8232C11.6104 46.8232 1.36035 36.7185 1.36035 24.249C1.36035 22.6966 1.521 21.1776 1.82324 19.7141C0.666016 17.7667 0 15.5076 0 13.0927C0 5.85913 5.94336 0 13.2783 0C15.8721 0 18.2935 0.737244 20.3398 2.00867C21.6152 1.79169 22.9219 1.67761 24.2539 1.67761C36.9004 1.67761 47.1475 11.7851 47.1475 24.249ZM31.3438 38.5157C33.3755 37.6867 34.939 36.5182 35.9976 35.0381C37.0586 33.5552 37.6006 31.8609 37.6006 30.0024C37.6006 28.4473 37.2871 27.1118 36.6689 26.024C36.0508 24.9446 35.1846 24.0432 34.0894 23.3393C33.0112 22.6465 31.6963 22.0567 30.1694 21.5782C28.665 21.1024 26.9634 20.6601 25.1094 20.2706C23.6445 19.9367 22.5776 19.678 21.9429 19.5027C21.3218 19.3358 20.7012 19.0965 20.1001 18.7988C19.5186 18.5095 19.0586 18.1701 18.7368 17.775C18.4263 17.4078 18.2769 16.9766 18.2769 16.4647C18.2769 15.6245 18.7422 14.915 19.6963 14.3002C20.687 13.6575 22.0244 13.3347 23.6616 13.3347C25.4312 13.3347 26.7153 13.6241 27.4854 14.2028C28.2788 14.7982 28.9702 15.6411 29.54 16.7095C30.0342 17.5441 30.48 18.1284 30.9087 18.5039C31.3662 18.9045 32.0322 19.1104 32.8789 19.1104C33.8101 19.1104 34.603 18.7849 35.2295 18.1395C35.8535 17.5024 36.1694 16.7679 36.1694 15.9611C36.1694 15.1237 35.9268 14.2584 35.4526 13.3876C34.9844 12.5251 34.2334 11.6989 33.2261 10.9199C32.2271 10.1492 30.957 9.526 29.4473 9.06421C27.9458 8.60236 26.1479 8.36865 24.1045 8.36865C21.5449 8.36865 19.2871 8.71918 17.3877 9.41193C15.46 10.1103 13.9644 11.1396 12.9429 12.4556C11.9097 13.7799 11.3877 15.3184 11.3877 17.0211C11.3877 18.81 11.8872 20.3318 12.8696 21.5476C13.8374 22.7411 15.1611 23.6954 16.8037 24.3826C18.4067 25.0586 20.4243 25.6512 22.8037 26.152C24.5503 26.5137 25.9614 26.8615 27.0029 27.1786C27.999 27.4902 28.8203 27.9354 29.4473 28.5084C30.0396 29.0593 30.3306 29.7604 30.3306 30.6479C30.3306 31.7775 29.7773 32.7011 28.6343 33.4662C27.4688 34.2507 25.9165 34.6514 24.0229 34.6514C22.6484 34.6514 21.5278 34.451 20.6982 34.0671C19.874 33.6804 19.228 33.188 18.7764 32.5982C18.3105 31.9944 17.8701 31.221 17.4639 30.3029C17.1001 29.4655 16.6484 28.8117 16.1206 28.3693C15.5703 27.9103 14.8901 27.6794 14.1055 27.6794C13.146 27.6794 12.3418 27.9715 11.7153 28.5557C11.083 29.1428 10.7612 29.8606 10.7612 30.6841C10.7612 32.0112 11.2524 33.3828 12.2261 34.7627C13.1885 36.137 14.4556 37.2443 15.9937 38.0623C18.147 39.189 20.9043 39.7593 24.1919 39.7593C26.9326 39.7593 29.3369 39.3393 31.3438 38.5157Z" fill="#00AEF3"/>
</svg>
